<?xml version="1.0" standalone="no"?><!DOCTYPE svg PUBLIC "-//W3C//DTD SVG 1.1//EN" "http://www.w3.org/Graphics/SVG/1.1/DTD/svg11.dtd"><svg t="1741786758921" class="icon" viewBox="0 0 1024 1024" version="1.1" xmlns="http://www.w3.org/2000/svg" p-id="2670" xmlns:xlink="http://www.w3.org/1999/xlink" width="200" height="200"><path d="M647.075956 142.883049S534.479405 878.853621 441.150073 1024l-77.96925-0.00826c185.510479-490.225772 167.759031-604.680896 283.895133-881.108691z" fill="#85CC85" p-id="2671"></path><path d="M647.075956 142.883049c11.0358-29.059839-10.816901 21.588371 0 0 0 0-112.596551 735.970573-205.925883 881.116951l-50.437572-0.00826c73.905168-164.562283 113.719955-338.293532 256.363455-881.108691z" fill="#6EA86E" p-id="2672"></path><path d="M520.56488 735.082587c-38.249455 69.845216 43.659971 153.299324 120.906442 199.425004 96.158495 57.42994 260.580353 28.390752 260.580353 28.390752s-7.141055-212.744785-122.054628-281.383992c-114.909443-68.618557-221.170321-16.30589-259.432167 53.568236z" fill="#85CC85" p-id="2673"></path><path d="M540.525966 780.448316c-31.542068 51.309036 43.849959 116.759757 113.856251 153.993192 87.142345 46.352839 231.888098 29.881742 231.888099 29.881742s-13.484988-160.295823-117.639482-215.689592c-104.154494-55.385509-196.558669-19.494377-228.104868 31.814658z" fill="#79BA79" opacity=".5" p-id="2674"></path><path d="M749.908797 791.859962c73.756482 44.048207 127.522966 105.368762 151.870287 165.631995 0.206508 3.51064 0.272591 5.410516 0.272591 5.410516s-164.421858 29.039188-260.580353-28.390752c-74.409048-44.436442-153.109336-123.504316-124.590549-191.697465 64.727942-15.698756 151.411839 0.293242 233.028024 49.045706z" fill="#69A169" p-id="2675"></path><path d="M762.898165 823.129439c63.464111 37.910782 111.898553 86.716939 136.233484 132.359389 0.433667 2.548312 0.627785 3.936047 0.627785 3.936047s-132.020715 7.723408-214.760306-41.681623c-64.021683-38.249455-134.122969-101.924205-115.913073-149.032864 51.6601-6.137425 123.591049 12.477228 193.81211 54.419051z" fill="#87CF87" opacity=".48" p-id="2676"></path><path d="M637.328767 772.720778s43.63519 40.806027 52.258974 96.51782c0 0 10.994498-23.645193-10.573221-85.217689 0.00413 0-53.758224-36.684123-41.685753-11.300131zM757.062242 808.008906s35.027927-6.918026 76.874756 11.015149c0 0-26.362841-25.383992-101.151864-30.645822l24.277108 19.630673z" fill="#69A169" p-id="2677"></path><path d="M505.944097 748.745172c2.329413 68.783763-93.597793 97.690786-171.352274 100.317571C237.801413 852.337964 121.942032 761.746931 121.942032 761.746931s88.534211-157.887937 204.215995-161.811594c115.669393-3.911266 177.448397 80.001291 179.78607 148.809835z" fill="#85CC85" p-id="2678"></path><path d="M479.961231 776.706387c-1.945308 52.254844-90.347353 67.986641-160.787313 64.988142-87.687527-3.737799-187.092332-79.811303-187.092332-79.811303s89.310682-113.922334 194.109482-109.453495c104.790539 4.456448 155.69482 72.009422 153.770163 124.276656z" fill="#79BA79" opacity=".5" p-id="2679"></path><path d="M306.370408 695.928626c-74.239711 2.50701-139.756514 26.433054-182.107223 61.840956-1.528161 2.564832-2.321153 3.977349-2.321153 3.977349s115.859381 90.595163 212.649791 87.319942c74.900537-2.531791 166.635626-29.468725 171.182937-92.936966-43.940822-38.889631-117.242986-62.993272-199.404352-60.201281z" fill="#69A169" p-id="2680"></path><path d="M284.11708 714.146782c-63.877128 2.168336-120.390171 18.854202-157.028863 43.209784-1.334043 1.74706-2.023781 2.717648-2.02378 2.717648s99.111563 60.952971 182.400464 58.136199c64.44709-2.188987 143.514964-21.0721 147.822726-64.294275-37.567978-26.201765-100.478647-42.160721-171.170547-39.769356z" fill="#87CF87" opacity=".48" p-id="2681"></path><path d="M402.417388 725.909491s-70.439959-1.111014-123.380411 39.1044c0 0 10.03217-29.063969 78.753981-63.649969 0 0 75.664618 12.898504 44.62643 24.545569zM327.095574 696.114483s-39.649581-9.924786-63.303035-40.401271c0 0 1.267961 17.80101 34.610781 47.476243 0 0 44.345579 4.105384 28.692254-7.074972z" fill="#69A169" p-id="2682"></path><path d="M430.114273 418.084184c-25.094881 10.457577-127.704693 29.295258-138.174661 4.171467-10.469968-25.127922 73.603666-84.048852 100.272139-95.163126 69.312424-28.869851 112.022458-22.757208 122.488295 2.366585 10.469968 25.123792-15.269219 59.755223-84.585773 88.625074z" fill="#E8AE00" p-id="2683"></path><path d="M437.759208 401.16703c-22.06334 9.189617-111.109691 28.527048-118.882662 9.866963S386.16519 343.352984 409.608005 333.589274c60.93232-25.383992 97.323202-22.794379 105.100302-4.130164 7.76884 18.655954-16.016779 46.323928-76.949099 71.70792z" fill="#E8AE00" p-id="2684"></path><path d="M439.489747 376.563638c-19.593501 8.157075-95.563751 32.743946-98.653115 25.32617-3.089363-7.421906 66.648468-43.531936 87.460368-52.205282 54.096898-22.534179 83.313683-27.647323 86.407176-20.225416 3.089363 7.421906-21.117532 24.56209-75.214429 47.104528z" fill="#E8AE00" p-id="2685"></path><path d="M506.435587 475.332398c-16.508268 21.600761-95.951987 89.223949-117.57753 72.695029s21.716406-109.593921 39.257216-132.541116c45.592888-59.66436 85.638966-75.72657 107.260378-59.197651 21.625542 16.528919 16.648694 59.383508-28.940064 119.043738z" fill="#E8AE00" p-id="2686"></path><path d="M504.593533 456.862301c-14.513399 18.990497-81.963119 80.261491-98.025329 67.990772-16.066341-12.27898 24.434054-92.25962 39.856089-112.443735C486.499282 359.964506 519.30931 344.00968 535.371521 356.29279c16.066341 12.27485 9.301131 48.120549-30.777988 100.569511z" fill="#E8AE00" p-id="2687"></path><path d="M493.789022 434.683316c-12.886114 16.863463-66.384138 76.143717-72.769372 71.261863-6.389365-4.881855 35.948954-71.018182 49.64045-88.930707 35.581369-46.567607 58.330316-65.607667 64.715551-60.721682 6.385235 4.877725-6.00526 31.827049-41.586629 78.390526z" fill="#E8AE00" p-id="2688"></path><path d="M601.148524 486.752303c-3.49825 26.969976-38.480745 125.247245-65.471371 121.753126-26.998887-3.50238-35.990255-105.773519-32.277237-134.420341 9.648065-74.46274 36.304148-108.396173 63.298904-104.889663 26.990626 3.489989 44.101899 43.090009 34.449704 117.556878z" fill="#E8AE00" p-id="2689"></path><path d="M599.731878 467.757675c-3.072843 23.703015-30.8482 110.490167-50.89189 107.892294-20.05195-2.597874-24.970976-92.119194-21.704016-117.304939 8.479228-65.458981 28.919413-95.679396 48.971363-93.077392 20.043689 2.597874 32.10377 37.026927 23.624543 102.490037z" fill="#E8AE00" p-id="2690"></path><path d="M579.287562 453.950535c-2.725909 21.05145-19.424165 99.128084-27.391252 98.103802-7.975348-1.040802-4.377975-79.48502-1.474469-101.845731 7.53342-58.115548 17.714276-85.977639 25.685494-84.940968 7.971218 1.036671 10.713647 30.571479 3.180227 88.682897z" fill="#E8AE00" p-id="2691"></path><path d="M688.885613 449.283449c10.457577 25.103141 29.303519 127.712954 4.175597 138.17466-25.127922 10.469968-84.052982-73.599535-95.167256-100.272139-28.865721-69.312424-22.757208-112.026588 2.378975-122.488295 25.115532-10.461707 59.738703 15.273349 88.612684 84.585774z" fill="#E8AE00" p-id="2692"></path><path d="M684.52829 436.422116c9.181356 22.06334 28.522918 111.109691 9.866963 118.886791-18.672475 7.76884-67.68927-67.292774-77.448849-90.735589-25.388123-60.93232-22.798509-97.319071-4.130165-105.096171 18.655954-7.7771 46.319797 16.012649 71.712051 76.944969z" fill="#E8AE00" p-id="2693"></path><path d="M659.916638 434.687447c8.161205 19.593501 32.748076 95.563751 25.3303 98.653114-7.426036 3.089363-43.536066-66.644338-52.205282-87.464498-22.534179-54.096898-27.647323-83.309553-20.225417-86.403046 7.417776-3.097624 24.56622 21.113402 47.100399 75.21443z" fill="#E8AE00" p-id="2694"></path><path d="M723.327057 366.308439c17.79275 13.592372 73.4715 79.010051 59.862607 96.819322-13.608893 17.8134-90.248229-17.887743-109.151993-32.326799-49.124179-37.543197-62.357227-70.518432-48.740074-88.331833 13.608893-17.80101 48.89702-13.708017 98.02946 23.83931z" fill="#E8AE00" p-id="2695"></path><path d="M717.528306 363.900553c15.632673 11.948567 66.095026 67.495152 55.992643 80.711679-10.114773 13.233048-75.98264-20.118032-92.594163-32.814158-43.189133-33.000016-56.323056-60.019554-46.208283-73.248472 10.102383-13.224787 39.62067-7.649065 82.809803 25.350951z" fill="#E8AE00" p-id="2696"></path><path d="M699.268847 372.801058c13.889744 10.610393 62.700031 54.66273 58.681381 59.92043-4.02278 5.2577-58.483132-29.600891-73.240211-40.88037-38.340319-29.299389-54.018424-48.033816-49.991514-53.291516 4.01452-5.2577 26.205895 4.947937 64.550344 34.251456z" fill="#E8AE00" p-id="2697"></path><path d="M757.557862 278.257458c26.965845 3.494119 125.247245 38.484875 121.753126 65.471371-3.50238 26.998887-105.769388 35.990255-134.420341 32.277237-74.46274-9.652195-108.392043-36.300018-104.889663-63.298904 3.485859-26.990626 43.085878-44.101899 117.556878-34.449704z" fill="#E8AE00" p-id="2698"></path><path d="M751.895406 285.163093c23.698885 3.076973 110.490167 30.85233 107.892293 50.89602-2.610264 20.05195-92.123324 24.970976-117.304938 21.708146-65.458981-8.483358-95.675266-28.923544-93.077392-48.979624 2.597874-20.043689 37.026927-32.107901 102.490037-23.624542z" fill="#E8AE00" p-id="2699"></path><path d="M738.096526 305.607408c21.047319 2.725909 99.132214 19.424165 98.099672 27.391253-1.032541 7.979478-79.48502 4.377975-101.845731 1.474469-58.115548-7.53342-85.977639-17.714276-84.940968-25.689625 1.028411-7.967088 30.563219-10.709517 88.687027-3.176097z" fill="#E8AE00" p-id="2700"></path><path d="M720.084878 190.520368c25.103141-10.457577 127.717084-29.295258 138.17466-4.175596 10.474098 25.132052-73.603666 84.057112-100.268009 95.167255-69.312424 28.869851-112.018328 22.757208-122.488295-2.374844-10.461707-25.119662 15.269219-59.738703 84.581644-88.616815z" fill="#E8AE00" p-id="2701"></path><path d="M712.452333 207.433393c22.05921-9.185486 111.109691-28.531178 118.886792-9.866963 7.76884 18.668345-67.296904 67.685139-90.739719 77.448848-60.92819 25.379862-97.319071 22.794379-105.096172 4.117775-7.7771-18.655954 16.012649-46.311537 76.949099-71.69966z" fill="#E8AE00" p-id="2702"></path><path d="M710.717664 232.045045c19.597632-8.169466 95.567882-32.743946 98.653115-25.330301 3.097624 7.426036-66.644338 43.531936-87.456238 52.205282-54.101028 22.530049-83.317813 27.643192-86.411307 20.217157-3.089363-7.417776 21.117532-24.557959 75.21443-47.092138z" fill="#E8AE00" p-id="2703"></path><path d="M635.519755 144.080796c14.505139-18.986367 84.313183-78.407047 103.30781-63.885388 19.015278 14.525789-19.073101 96.303051-34.495136 116.474776-40.058468 52.424181-75.243341 66.536954-94.250359 52.011164-19.007018-14.525789-14.629043-52.176371 25.437685-104.600552z" fill="#E8AE00" p-id="2704"></path><path d="M637.130519 160.308214c12.749818-16.685865 72.021812-70.530823 86.130455-59.742833 14.116903 10.79212-21.464466 81.079264-35.015536 98.810061-35.213784 46.080248-64.054725 60.098027-78.171628 49.305906-14.108643-10.78799-8.157075-42.280496 27.056709-88.373134z" fill="#E8AE00" p-id="2705"></path><path d="M646.625768 179.794331c11.324912-14.819031 58.338577-66.904538 63.94321-62.621558 5.621154 4.291241-31.59163 62.406789-43.6228 78.150977-31.261217 40.913412-51.255344 57.640579-56.872368 53.349338-5.608764-4.282981 5.282481-27.961215 36.551958-68.878757z" fill="#E8AE00" p-id="2706"></path><path d="M549.054756 121.84812c3.49825-26.965845 38.484875-125.251375 65.475502-121.753126 26.998887 3.50238 35.994386 105.769388 32.277237 134.420341-9.652195 74.46274-36.295888 108.392043-63.298904 104.889663-26.986496-3.489989-44.097769-43.090009-34.453835-117.556878z" fill="#E8AE00" p-id="2707"></path><path d="M569.292564 132.999564c3.081103-23.698885 30.856461-110.490167 50.90015-107.896423 20.04782 2.606134 24.966846 92.123324 21.708145 117.309069-8.487489 65.458981-28.927674 95.679396-48.979623 93.077392-20.043689-2.597874-32.10377-37.022797-23.628672-102.490038z" fill="#E8AE00" p-id="2708"></path><path d="M589.745139 146.802575c2.725909-21.05145 19.420035-99.132214 27.387123-98.095542 7.983608 1.028411 4.382105 79.48089 1.482729 101.841601-7.53342 58.115548-17.718407 85.981769-25.693755 84.940968-7.967088-1.032541-10.705387-30.567349-3.176097-88.687027z" fill="#E8AE00" p-id="2709"></path><path d="M461.321797 159.316974c-10.457577-25.103141-29.295258-127.712954-4.171466-138.174661 25.127922-10.469968 84.048852 73.599535 95.158995 100.272139 28.873982 69.312424 22.769598 112.014197-2.370714 122.488296-25.119662 10.465837-59.734572-15.277479-88.616815-84.585774z" fill="#E8AE00" p-id="2710"></path><path d="M484.508542 164.343384c-9.189617-22.06334-28.531178-111.113822-9.866963-118.886791 18.668345-7.76884 67.685139 67.296904 77.452979 90.739719 25.379862 60.92406 22.790249 97.319071 4.121904 105.092041-18.660084 7.76884-46.315667-16.012649-71.70792-76.944969z" fill="#E8AE00" p-id="2711"></path><path d="M509.120194 166.069793c-8.165336-19.589371-32.743946-95.563751-25.3303-98.648984 7.421906-3.097624 43.531936 66.644338 52.201151 87.460368 22.538309 54.092767 27.651453 83.313683 20.225417 86.403046-7.417776 3.093493-24.56209-21.117532-47.096268-75.21443z" fill="#E8AE00" p-id="2712"></path><path d="M404.073584 235.630028c-21.604892-16.508268-89.228079-95.951987-72.703289-117.5734 16.528919-21.629673 109.593921 21.716406 132.549376 39.253086 59.660229 45.588758 75.72657 85.626575 59.193521 107.264508-16.528919 21.625542-59.375248 16.644564-119.039608-28.944194z" fill="#E8AE00" p-id="2713"></path><path d="M428.813271 231.17358c-18.990497-14.513399-80.265621-81.963119-67.990772-98.02533 12.28724-16.05808 92.26375 24.442315 112.447865 39.85609 52.444832 40.074988 68.395528 72.885017 56.112418 88.955488-12.262459 16.05808-48.112289 9.292871-100.569511-30.786248z" fill="#E8AE00" p-id="2714"></path><path d="M450.992255 220.369069c-16.867593-12.881984-76.139587-66.384138-71.261862-72.769372C384.620508 141.210332 450.752706 183.552781 468.66936 197.236016c46.559347 35.589629 65.599406 58.334447 60.713422 64.723812-4.873594 6.385235-31.827049-6.00939-78.390527-41.590759z" fill="#E8AE00" p-id="2715"></path><path d="M392.649549 330.347095c-26.961715-3.49825-125.247245-38.484875-121.748996-65.471371 3.50238-27.003017 105.769388-35.994386 134.420341-32.281367 74.46274 9.652195 108.396173 36.291757 104.889663 63.298904-3.494119 26.986496-43.094139 44.097769-117.561008 34.453834z" fill="#E8AE00" p-id="2716"></path><path d="M405.110256 313.239953c-23.698885-3.072843-110.494297-30.8482-107.896424-50.89189 2.610264-20.05608 92.123324-24.970976 117.309069-21.708146 65.458981 8.483358 95.679396 28.927674 93.077392 48.983754-2.589613 20.039559-37.026927 32.10377-102.490037 23.616282z" fill="#E8AE00" p-id="2717"></path><path d="M418.913266 292.795638c-21.05145-2.725909-99.128084-19.424165-98.099672-27.391253 1.032541-7.979478 79.48089-4.373844 101.841601-1.478599 58.115548 7.537551 85.981769 17.718407 84.945098 25.693755-1.032541 7.967088-30.571479 10.705387-88.687027 3.176097z" fill="#E8AE00" p-id="2718"></path><path d="M546.37428 503.619896c-8.260329 28.712905-24.780988 49.363729-41.194263 70.485391-6.988239 8.504009-14.232548 16.466967-21.282739 23.095881-14.100382 13.257829-27.416033 21.175355-36.59326 17.396254s-13.138054-18.594002-13.885613-37.741445c-0.375845-9.573722 0.024781-20.254328 0.644305-31.33556 0.801252-58.619428 0.801252-120.571899 42.102899-170.133876 24.780988-24.780988 61.952471-12.390494 74.342965 16.520659 8.260329 28.911153 4.130165 53.692141 2.188988 83.829954a294.596389 294.596389 0 0 1-6.323282 27.882742z" fill="#FFBF00" p-id="2719"></path><path d="M535.838229 483.757934c-10.110643 36.184373-30.761467 69.225691-56.017424 92.722198-8.045561 7.050191-15.248568 10.713647-20.361712 8.607263-5.113144-2.106384-7.686237-9.689366-8.574222-20.274979 0.49975-65.520933-11.890744-148.124228 45.931562-197.686204 16.520659-12.390494 28.911153-4.130165 41.301647 8.260329 12.390494 20.650824 12.390494 41.301647 6.075473 61.861608-1.362954 13.703887-4.035171 29.241566-8.355324 46.509785z" fill="#FFD966" p-id="2720"></path><path d="M513.605553 462.041528c-12.658955 33.119791-16.78912 74.421438-45.700273 99.202426 8.260329-66.082636 4.130165-144.555765 53.692141-198.247907 16.520659 20.650824 0 37.171483 0.49975 58.218802a1174.482552 1174.482552 0 0 1-8.491618 40.826679z" fill="#FFE79E" p-id="2721"></path><path d="M653.874207 489.775584c1.631415 9.78849 1.585983 28.977236-0.276721 50.346708-3.725409 42.738945-14.352322 94.176016-34.020167 96.8028-14.761209 1.974219-31.756837-23.422164-45.584628-53.225432-4.654696-9.933046-8.958327-20.357582-12.976977-30.410403-22.893503-45.737444-35.283997-95.299421-31.153833-148.991562 4.130165-28.911153 37.171483-41.301647 61.952471-28.911154 28.911153 20.650824 45.431812 53.692141 55.769614 85.965249a264.958327 264.958327 0 0 1 6.290241 28.423794z" fill="#FFBF00" p-id="2722"></path><path d="M636.952922 476.914251c0.284981 26.507397 0.284981 47.158221-0.479099 72.781762-1.75119 14.249068-4.291241 27.783618-7.76884 37.935563s-7.884484 16.925415-13.365213 17.656455-11.502509-4.547311-17.503638-13.303261c-6.046561-8.751819-12.072471-20.989497-17.573851-34.172983-21.493377-54.390139-58.66486-112.212445-33.883871-170.034751 20.650824-45.431812 66.082636 8.260329 76.544343 41.933562 5.468338 13.456077 10.27585 29.192004 14.030169 47.203653z" fill="#FFD966" p-id="2723"></path><path d="M608.524998 467.62138c3.936047 19.279609 8.066212 44.060597 8.082733 64.389268 0.710388 24.797509-0.355194 46.89802-4.712518 47.480374-4.361454 0.582353-11.139054-20.105642-17.875353-43.977994-10.469968-52.742204-51.771615-110.56451-26.990627-164.256651 20.650824 12.390494 20.650824 33.041318 29.035058 53.65497 4.084733 12.179856 8.318152 26.428924 12.460707 42.710033z" fill="#FFE79E" p-id="2724"></path><path d="M725.730813 411.46353c3.919526 5.088363 9.309391 14.620783 14.814901 26.346321 16.504138 35.180743 34.020167 90.107804 15.880483 104.092542-12.101383 9.325912-37.514286-0.9995-61.985512-16.359583-12.237678-7.677976-24.31428-16.615653-34.449704-24.975106-35.143572-30.187374-105.356372-96.27001-55.794395-141.701821 12.390494-10.325412 27.878612-10.325412 43.618669-5.427037s31.727925 14.690996 45.12205 23.950825c10.903635 8.714648 21.844441 20.023039 32.793508 34.073859z" fill="#FFBF00" p-id="2725"></path><path d="M711.390881 400.138619c3.527161 4.468838 8.470968 12.716777 13.654324 22.794379 15.417905 30.224545 32.942194 76.878886 19.465467 87.26212-4.493619 3.461078-11.956827 2.639175-20.840811-0.846684-8.888114-3.481729-19.209396-9.623284-29.427424-16.789119-40.479744-26.309149-77.651227-63.480632-94.171886-108.912444-4.130165-16.520659 4.130165-37.171483 24.780988-37.171483 20.650824-4.130165 45.431812 8.260329 57.557976 23.368472 9.499379 7.954697 19.201136 17.966217 28.981366 30.294759z" fill="#FFD966" p-id="2726"></path><path d="M684.561331 407.064905c14.633174 13.753449 18.763338 30.274107 30.885372 46.497394 10.668215 18.680735 18.907894 36.068729 15.339431 38.819419-3.572592 2.75482-18.094252-9.396125-33.454334-24.347321-23.384993-26.119162-64.079506-51.238824-75.990901-81.327074-3.973218-10.03217-4.745559-20.613652-0.615394-31.971605 0-12.390494 20.650824 12.390494 37.791007 24.169724 8.057951 7.863834 16.79325 17.239308 26.044819 28.159463z" fill="#FFE79E" p-id="2727"></path><path d="M775.424955 328.71568c9.090493 3.646935 25.56985 13.228918 43.147831 25.516158a422.871045 422.871045 0 0 1 26.3298 19.961086c25.512027 21.05558 46.166981 44.13907 40.496265 57.904909-7.562332 18.358582-59.247213 15.830921-101.519449 8.541181-21.138183-3.646935-39.926302-8.483358-49.665231-12.493748-29.361341-17.887743-80.839714-31.653582-96.03459-61.812046-5.067712-10.052821-6.100253-21.927045-0.854944-36.254586 24.698385-37.299518 74.260362-16.648694 111.402933-10.833422a330.698159 330.698159 0 0 1 26.697385 9.470468z" fill="#FFBF00" p-id="2728"></path><path d="M762.299291 322.421309c5.914396 2.333543 15.583111 7.401255 26.651953 14.067341a420.413597 420.413597 0 0 1 35.019667 23.608022c22.930675 17.280609 41.784876 35.874611 37.576239 46.096768-6.319152 15.343562-61.890518 7.843183-100.119323-1.329913-12.741558-3.056322-23.55846-6.298501-29.980866-8.945937-8.062082-4.101254-19.015278-8.466838-30.455835-13.484988-11.444686-5.01815-23.372602-10.684736-33.388251-17.387993-22.104642-10.313021-30.364971-39.224174-17.974477-55.744833 20.650824-16.520659 45.431812-4.130165 68.895277-0.697998 12.935676 2.899376 27.473856 7.380604 43.775616 13.819531z" fill="#FFD966" p-id="2729"></path><path d="M741.677379 339.768001c19.469597 2.577223 27.729926 19.097882 48.90528 23.909523a565.3989 565.3989 0 0 1 23.682365 13.414776c14.319281 8.644435 24.471226 16.140684 23.215656 19.188745-2.51114 6.104383-49.198522-7.004759-82.004421-17.904264-10.961457-3.630415-20.382363-7.02128-26.135682-9.367214-34.276237-14.273849-59.057225-30.794508-87.968379-47.315167 20.650824-12.390494 41.301647 8.260329 60.957102 3.816272 11.510769 3.593243 24.58274 8.318152 39.348079 14.257329z" fill="#FFE79E" p-id="2730"></path><path d="M746.612926 245.988481c35.184873-6.897375 109.527838-6.897375 101.267508 22.013778-8.260329 57.822306-103.254118 61.952471-165.206588 61.952471-20.650824-4.130165-45.431812-24.780988-37.171483-45.431812 12.390494-20.650824 37.171483-20.650824 57.756224-29.187875 12.712647-3.50238 27.209525-6.637175 43.354339-9.346562z" fill="#FFBF00" p-id="2731"></path><path d="M740.297904 248.611135c33.239566 2.870464 70.411048-9.52003 99.322201 11.130794-41.301647 41.301647-165.206589 90.863624-181.727248 20.650824 0-12.390494 24.780988-20.650824 44.085379-24.169724 11.196877-2.783731 24.008648-5.332043 38.319668-7.611894z" fill="#FFD966" p-id="2732"></path><path d="M730.620928 267.461207c30.526047 0.536921 59.437201-11.853573 88.348353-3.593243-53.692141 24.780988-111.514448 33.041318-169.336753 28.911153 4.130165-24.780988 28.911153-12.390494 46.451962-19.985867 10.065211-1.722279 21.600761-3.489989 34.536438-5.332043z" fill="#FFE79E" p-id="2733"></path><path d="M716.231434 160.704709c36.655212-24.867722 69.69653-62.039204 119.258506-62.039204 20.650824 4.130165 8.260329 33.041318 4.130165 45.431812-24.780988 57.822306-70.2128 103.254118-128.035106 128.035106-24.780988 8.260329-82.603294 16.520659-78.47313-24.780988 0-33.041318 37.171483-49.561977 60.044335-68.990271a1881.612184 1881.612184 0 0 0 23.07523-17.656455z" fill="#FFBF00" p-id="2734"></path><path d="M716.954213 170.274301c35.928303-13.78649 89.620444-75.738961 97.880774-50.957972 24.780988 61.952471-61.952471 123.904942-132.165272 144.555765-16.520659 4.130165-45.431812 4.130165-41.301647-16.520659 0-20.650824 16.520659-37.171483 36.952584-48.471613 10.849943-8.611393 23.798009-18.098382 38.633561-28.605521z" fill="#FFD966" p-id="2735"></path><path d="M719.994014 195.07181c28.762467-17.933175 57.67362-42.714164 82.454609-63.364987-20.650824 74.342965-94.993789 123.904942-156.94626 119.774777-12.390494 0 24.780988-20.650824 38.794637-32.661343 10.246939-6.835423 22.199635-14.707517 35.697014-23.748447z" fill="#FFE79E" p-id="2736"></path><path d="M610.742897 113.604311c26.499137-35.59376 63.670619-134.717713 96.711937-101.676395 57.822306 57.822306 24.780988 189.987577-66.082636 231.289224-24.780988 12.390494-53.692141-4.130165-57.822306-28.911153 0-24.780988 8.260329-49.561977 16.557831-74.119936a607.377894 607.377894 0 0 1 10.635174-26.58174z" fill="#FFBF00" p-id="2737"></path><path d="M619.631011 134.189052c21.741187-31.393382 54.782505-113.996677 79.563493-89.215688 45.431812 49.561977 12.390494 144.555765-49.561976 189.987577-16.520659 8.260329-37.171483 16.520659-53.692142 4.130165-12.390494-16.520659 0-41.301647 5.538551-62.373748 4.398625-12.390494 10.469968-26.511527 18.152074-42.528306z" fill="#FFD966" p-id="2738"></path><path d="M639.881209 156.95452c22.137683-33.508026 30.398012-70.679509 55.179001-99.590662 0 70.2128-20.650824 152.816095-90.863624 185.857412-4.130165-20.650824 12.390494-33.041318 16.669345-50.268234 5.344433-10.27172 11.709017-22.199635 19.015278-35.998516z" fill="#FFE79E" p-id="2739"></path><path d="M498.274381 133.88342c2.672217-43.478244-5.588113-121.951374 31.58337-117.821209 53.692141 4.130165 78.47313 99.123953 74.342965 161.076424 0 24.780988-16.520659 45.431812-37.171483 53.692141-28.911153 12.390494-53.692141-20.650824-60.246712-50.834067-3.110014-12.803511-6.112644-28.188374-8.50814-46.113289z" fill="#FFBF00" p-id="2740"></path><path d="M512.771259 145.67504c0.565833-38.749205-7.694497-96.571512 12.956327-96.571512 57.822306-12.390494 74.342965 99.123953 61.952471 156.94626 0 8.260329-12.390494 20.650824-20.650824 24.780988-33.041318 12.390494-45.431812-20.650824-47.996644-44.733814-2.217898-11.242308-4.332543-24.702515-6.26133-40.421922z" fill="#FFD966" p-id="2741"></path><path d="M537.11445 154.901828c-7.256699-31.459465 1.00363-64.500782-3.126534-97.5421 28.911153 45.431812 57.822306 140.425601 12.390494 173.466918 4.130165-12.390494-16.520659-24.780988-5.617024-40.083249a2424.485165 2424.485165 0 0 0-3.646936-35.841569z" fill="#FFE79E" p-id="2742"></path><path d="M413.548182 183.106723c-5.864834-7.706887-15.256828-24.339061-24.3308-43.779746-18.139683-38.877241-34.664473-88.736589-18.936806-100.846232 11.79575-9.090493 39.211784 4.406886 66.090896 23.302389a407.544004 407.544004 0 0 1 26.098511 20.06021c46.732814 37.472985 108.685285 107.685785 58.243583 164.302083-8.128164 5.092493-18.734427 7.401255-32.157462 5.336173-24.780988-8.260329-41.301647-24.780988-58.834197-46.943452a507.076844 507.076844 0 0 1-16.173725-21.431425z" fill="#FFBF00" p-id="2743"></path><path d="M437.767468 176.073052c-3.808012-5.080103-9.52829-14.410145-15.752448-25.82592a440.473807 440.473807 0 0 1-18.511399-38.092509c-11.217527-26.433054-18.251198-51.965733-9.495248-58.714422 9.862833-7.587113 37.287127 9.796751 62.419179 30.377362a441.390704 441.390704 0 0 1 23.661714 20.857332c20.857332 27.027798 53.89865 47.678622 62.158979 88.980269 4.130165 28.911153-16.520659 53.692141-45.316167 43.907781-12.270719-5.650065-24.425794-16.954326-32.215285-27.176484-8.219028-9.03267-17.160834-20.403014-26.949325-34.313409z" fill="#FFD966" p-id="2744"></path><path d="M464.212913 170.959908c-3.357824-4.526661-8.834422-12.473097-15.128794-21.993127a842.71881 842.71881 0 0 1-19.766968-31.248826c-12.774599-21.299259-22.901763-40.971234-19.424165-43.651711 3.923656-3.023281 23.959086 15.740058 43.416292 36.209154a823.881129 823.881129 0 0 1 18.651824 20.29976c16.595002 34.172983 78.547473 67.214301 45.506155 96.125453-8.260329 12.390494-16.520659-16.520659-30.261717-24.144943-6.641305-8.685736-14.265589-19.184615-22.992627-31.59576z" fill="#FFE79E" p-id="2745"></path><path d="M369.941903 277.922914c-21.8114-14.05082-42.462224-26.441315-64.637078-43.511285-8.504009-7.02128-16.466967-14.265589-23.095881-21.31165-13.257829-14.100382-21.175355-27.416033-17.396254-36.589129 5.674846-13.769969 36.163722-15.78962 68.887018-12.865463 10.907765 0.974719 22.06334 2.49875 32.632431 4.324282 47.881 9.173096 109.83347 25.693755 126.354129 75.255732 16.520659 41.301647-45.431812 61.952471-79.852604 49.082877-12.770469-2.76308-26.969976-7.446687-42.891761-14.385364z" fill="#FFBF00" p-id="2746"></path><path d="M390.596857 263.595373c-21.81553-12.117903-38.336189-20.378233-56.033945-35.870481-11.300131-8.487489-21.749447-17.458206-28.803769-25.545069s-10.717777-15.28987-8.611393-20.403013c4.216898-10.226288 30.323669-10.300631 58.586386-6.496749 14.129294 1.899876 28.774858 4.75382 41.409032 7.739928 41.850959 10.635174 95.543101 27.155833 99.673265 72.587645 4.130165 33.041318-45.431812 24.780988-68.577255 21.340561-11.27948-2.837423-23.785619-7.207137-37.642321-13.352822z" fill="#FFD966" p-id="2747"></path><path d="M410.764451 246.033913c-17.202136-6.942807-33.722795-19.333301-51.201652-26.523918-21.410774-11.77923-40.013036-23.748447-38.340319-27.808399 1.676847-4.068212 22.984367 0.400626 46.63369 6.988238 46.361099 15.620283 104.183405 23.880612 120.704064 65.18226 8.260329 12.390494-28.911153-4.130165-44.308407-4.353194-9.813271-3.489989-20.935805-7.950567-33.487376-13.484987z" fill="#FFE79E" p-id="2748"></path><path d="M379.201732 379.520836c-35.201394-0.00413-72.372876 4.126035-103.353242-7.756449-18.532049-5.579853-32.050078-13.154575-33.36347-22.988497-1.313392-9.838052 9.53655-20.671474 25.743316-30.897762 63.385638-37.485375 158.379427-82.917187 207.941404-16.834552 20.650824 28.911153-24.780988 53.692141-53.349338 65.070746-12.444186 5.232919-26.883242 9.809141-43.61867 13.406514z" fill="#FFBF00" p-id="2749"></path><path d="M391.724392 356.144104c-35.337689 2.721779-105.55049 6.851943-101.420325-17.929045 8.260329-53.692141 103.254118-66.082636 169.336753-61.952471 12.390494 4.130165 24.780988 12.390494 24.780989 24.780988-4.130165 28.911153-33.041318 33.041318-53.749964 44.12255-11.28774 4.134295-24.215156 7.872094-38.947453 10.977978z" fill="#FFD966" p-id="2750"></path><path d="M399.534533 330.442089c-34.887501 3.642805-63.798654 16.033299-96.839972 3.642805 53.692141-24.780988 119.774777-53.692141 181.727248-33.041318-12.390494 16.520659-33.041318 12.390494-49.39677 21.402514a757.521772 757.521772 0 0 1-35.490506 7.995999z" fill="#FFE79E" p-id="2751"></path><path d="M443.685994 462.322379c-29.476986 24.57861-58.388139 41.099269-94.060371 49.979123-18.79638 4.493619-34.288628 4.695997-40.343449-3.167836-6.058952-7.863834-2.081603-22.670474 6.765209-39.728055 36.213284-56.847587 73.384767-151.841376 160.118226-135.320717 45.431812 8.260329 16.520659 61.952471-1.028411 90.083023-8.190117 12.03117-18.54444 24.838811-31.451204 38.154462z" fill="#FFBF00" p-id="2752"></path><path d="M436.772098 438.458287c-30.819289 23.661714-92.77176 64.963361-96.901924 44.312537-16.520659-61.952471 57.822306-156.946259 136.295435-148.68593 28.911153 4.130165 4.130165 49.561977-11.494248 71.294904-7.5169 10.251069-16.727167 21.340561-27.899263 33.078489z" fill="#FFD966" p-id="2753"></path><path d="M428.602633 411.033993c-26.779988 22.174854-47.430812 46.955843-80.47213 59.346337 33.041318-53.692141 70.2128-119.774777 136.295436-132.165271-4.130165 20.650824-20.650824 28.911153-29.757837 44.812287a1499.695852 1499.695852 0 0 1-26.065469 28.006647z" fill="#FFE79E" p-id="2754"></path><path d="M576.764032 308.279625m-43.457594 0a43.457593 43.457593 0 1 0 86.915187 0 43.457593 43.457593 0 1 0-86.915187 0Z" opacity=".53" p-id="2755"></path><path d="M716.404901 359.121953c-2.333543 5.666586-13.860833 6.748689-16.780859 11.965087-2.986109 5.332043-0.198248 14.04669-3.737799 18.887243-3.597373 4.919026-8.751819 8.648565-12.861333 13.03067-4.159076 4.435797-4.415146 13.567591-9.036801 17.429295-4.658826 3.890615-17.978607-4.092993-23.038059-0.809512-5.084233 3.295871-6.76108 11.510769-12.183986 14.162335-5.435297 2.659826-12.014649 1.606634-17.730797 3.593243-5.703757 1.982479-11.589242 0.582353-17.503638 1.870965-5.897875 1.284481-10.296501 8.867464-16.338931 9.433296-5.992869 0.561702-11.857703-1.305132-17.933176-1.474469-6.00939-0.169337-11.403385-2.345934-17.425165-3.2587-5.926786-0.896246-13.084362 4.489489-18.973976 2.853944-5.76158-1.602504-11.973348-2.973719-17.639934-5.307262s-12.939806-2.345934-18.156204-5.26596c-5.332043-2.986109-7.863834-10.953197-12.704387-14.492748-4.914896-3.597373-12.857203-4.047561-17.243437-8.157075-4.431667-4.159076-5.980479-11.564461-9.838053-16.186116-3.890615-4.654696-5.117274-11.242308-8.396625-16.30589-3.291741-5.084233-14.835552-5.947437-17.487117-11.374474-2.655696-5.435297-2.027911-13.063711-4.01452-18.775729-1.982479-5.707888 3.072843-13.53868 1.784231-19.457206-1.284481-5.893745-1.850314-11.601633-2.416146-17.639933-0.561702-5.996999-11.382734-11.993998-11.209268-18.069471 0.169337-6.00526 8.136425-11.865963 9.045061-17.887743 0.896246-5.926786 7.591243-10.374974 9.230918-16.264589 1.598374-5.76158-3.217398-13.592372-0.883855-19.254828s9.821532-8.644435 12.741558-13.860833c2.986109-5.332043 5.365084-10.52779 8.904635-15.368342 3.597373-4.914896 4.113644-12.245938 8.227289-16.628044 4.159076-4.435797 12.113773-4.613394 16.735427-8.475098 4.654696-3.890615 6.645435-11.068841 11.709017-14.352322 5.080103-3.291741 8.817902-9.615023 14.244938-12.266589 5.435297-2.659826 10.961457-6.76934 16.673475-8.75595 5.703757-1.982479 14.439056 6.281981 20.357582 4.99337 5.893745-1.284481 10.213897-14.422535 16.256328-14.988368 5.992869-0.561702 12.762209 8.52879 18.841812 8.702257 6.00526 0.169337 12.312021-2.164206 18.333801-1.25557 5.930917 0.896246 10.78386 6.711518 16.669345 8.347063 5.76158 1.602504 9.643935 7.062582 15.310521 9.396124s14.079732-2.040301 19.296129 0.879726c5.332043 2.986109 13.105013 2.730039 17.945566 6.26959 4.914896 3.597373 8.669216 9.325912 13.05132 13.439556 4.431667 4.159076-0.140426 16.338932 3.717149 20.960586 3.890615 4.654696 10.255199 6.488489 13.53868 11.55207 3.295871 5.080103 15.434426 5.2577 18.090121 10.688867 2.655696 5.435297 6.401755 11.27948 8.384234 16.991497 1.982479 5.707888-5.538551 14.401884-4.249939 20.320411 1.284481 5.893745 1.420777 11.647065 1.982479 17.689495 0.565833 5.996999 8.77247 11.874224 8.603133 17.949696-0.169337 6.00526-6.405885 11.758579-7.314522 17.784489-0.892116 5.926786-5.856574 10.697127-7.487988 16.582612-1.614894 5.75745 5.245309 14.496878 2.911766 20.159334z" fill="#734C21" p-id="2756"></path><path d="M670.159446 337.583144c-2.399626 5.827662-5.906136 11.461207-9.164835 16.611522-3.349564 5.290741-12.014649 6.253069-16.140684 10.7756-4.204508 4.605134-3.861704 13.997128-8.731168 17.747318-4.923156 3.787361-13.567591 1.718149-19.035929 4.576222-5.484859 2.866334-7.859703 13.860833-13.757579 15.740058-5.881355 1.870965-13.637804-1.75119-19.787619-0.925157-6.096123 0.821903-12.299631-1.214268-18.523789-1.470338-6.116774-0.25607-12.452447 1.201878-18.56922-0.148686-5.947437-1.313392-10.639304-6.372844-16.462837-8.77247-5.827662-2.403756-12.493748-2.473969-17.644064-5.732669-5.290741-3.349564-13.856703-3.159576-18.379233-7.289741-4.605134-4.204508-3.774971-13.844312-7.52516-18.722036-3.787361-4.923156-5.241179-10.808641-8.099253-16.28111-2.866334-5.488989-10.924286-8.755949-12.803511-14.657954-1.870965-5.881355 1.424907-13.014149 0.598874-19.172225-0.821903-6.096123-0.520401-11.882484-0.2602-18.110772 0.25194-6.116774-4.448187-12.981108-3.097624-19.097882 1.313392-5.947437 9.627414-9.714147 12.02704-15.54181 2.403756-5.827662 6.199377-9.895875 9.458077-15.04619 3.349564-5.290741 0.590614-14.856203 4.716648-19.378733 4.204508-4.605134 12.836552-4.221028 17.714277-7.971218 4.923156-3.783231 5.683107-14.311021 11.155575-17.169094 5.488989-2.866334 12.481358-4.01865 18.383363-5.893745 5.881355-1.870965 12.440056-3.651066 18.589871-4.477099 6.096123-0.817773 12.745688 2.672217 18.973977 2.932417 6.116774 0.25607 11.444686 4.51427 17.561461 5.864834 5.943307 1.313392 11.849443 1.433167 17.672974 3.832793s13.935176 0.413016 19.081361 3.667586c5.290741 3.349564 11.936176 6.091993 16.454577 10.218028 4.601004 4.200378 4.588613 13.142184 8.338802 18.015778 3.787361 4.919026 3.952568 11.630544 6.806512 17.103012 2.866334 5.484859 11.498379 8.429666 13.373473 14.327542 1.870965 5.881355 3.812142 12.28724 4.638175 18.441185 0.817773 6.096123-3.865834 12.597002-4.121904 18.825291-0.25607 6.116774 3.366084 12.873723 2.01552 18.986367-1.313392 5.955698-3.056322 12.369843-5.455948 18.193376z" fill="#8B5C29" p-id="2757"></path><path d="M637.609618 324.069245c-2.354194 5.716148-5.877224 11.134924-9.458077 15.826791-3.704758 4.852944-10.754949 6.137425-15.483987 9.7761-4.799251 3.692367-7.644935 10.676476-13.191747 12.993498s-12.452447-0.090864-18.449445 0.718649c-5.914396 0.797122-12.167465 6.798251-18.222287 6.01352-5.852443-0.75995-11.362083-5.707888-17.078231-8.057952-5.716148-2.354194-10.118904-6.649565-14.806641-10.230418-4.857074-3.704758-10.081732-6.893245-13.720407-11.626413-3.692367-4.795121-4.704258-10.986238-7.01302-16.53718-2.312892-5.550941-5.720278-10.664085-6.52979-16.661085-0.792992-5.914396-4.291241-12.444186-3.50238-18.499007 0.76408-5.852443 6.823032-10.833422 9.177226-16.54957 2.354194-5.716148 6.253069-9.937176 9.833922-14.629044 3.704758-4.852944 5.104884-11.886614 9.838053-15.521159 4.799251-3.692367 11.626414-4.059952 17.177355-6.372844 5.550941-2.308762 11.089492-3.432167 17.090621-4.233419 5.914396-0.792992 11.960957-4.402756 18.015779-3.613894 5.852443 0.76408 10.457577 6.52566 16.173725 8.879854 5.716148 2.354194 9.759579 5.815272 14.447316 9.391995 4.857074 3.704758 12.597002 4.142555 16.231548 8.867463 3.692367 4.799251 3.25457 11.940306 5.567462 17.487118 2.312892 5.550941 9.206137 10.065211 10.015649 16.05808 0.797122 5.914396-0.218899 12.654825-1.00363 18.709647-0.772341 5.852443-2.75895 12.097252-5.109014 17.80927z" fill="#99652D" p-id="2758"></path></svg>